<svg xmlns="http://www.w3.org/2000/svg" viewBox="0 0 60 60"><path d="M52 0v3a1 1 0 100 2v3h3a1 1 0 102 0h3V0h-8zM5 22a1 1 0 10-2 0v1a1 1 0 102 0v-1zM5 12a1 1 0 10-2 0v1a1 1 0 102 0v-1zM4 46a1 1 0 00-1 1v1a1 1 0 102 0v-1a1 1 0 00-1-1zM5 27a1 1 0 10-2 0v1a1 1 0 102 0v-1zM5 17a1 1 0 10-2 0v1a1 1 0 102 0v-1zM4 9a1 1 0 001-1h3V5a1 1 0 100-2V0H0v8h3a1 1 0 001 1zM5 42a1 1 0 10-2 0v1a1 1 0 102 0v-1zM5 32a1 1 0 10-2 0v1a1 1 0 102 0v-1zM5 37a1 1 0 10-2 0v1a1 1 0 102 0v-1zM22 5h1a1 1 0 100-2h-1a1 1 0 100 2zM42 5h1a1 1 0 100-2h-1a1 1 0 100 2zM37 5h1a1 1 0 100-2h-1a1 1 0 100 2zM12 5h1a1 1 0 100-2h-1a1 1 0 100 2zM47 5h1a1 1 0 100-2h-1a1 1 0 100 2zM32 5h1a1 1 0 100-2h-1a1 1 0 100 2zM17 5h1a1 1 0 100-2h-1a1 1 0 100 2zM27 5h1a1 1 0 100-2h-1a1 1 0 100 2zM56 14a1 1 0 001-1v-1a1 1 0 10-2 0v1a1 1 0 001 1zM55 43a1 1 0 102 0v-1a1 1 0 10-2 0v1zM55 38a1 1 0 102 0v-1a1 1 0 10-2 0v1zM55 33a1 1 0 102 0v-1a1 1 0 10-2 0v1zM55 48a1 1 0 102 0v-1a1 1 0 10-2 0v1zM55 18a1 1 0 102 0v-1a1 1 0 10-2 0v1zM55 28a1 1 0 102 0v-1a1 1 0 10-2 0v1z"/><path d="M56 51a1 1 0 00-1 1h-1.32L45 29.81V23h-8v3H23v-3h-8v6.81L6.32 52H5a1 1 0 10-2 0H0v8h8v-3h44v3h8v-8h-3a1 1 0 00-1-1zM8 55v-1.81L16.68 31H23v-3h14v3h6.32L52 53.19V55H8zM55 23a1 1 0 102 0v-1a1 1 0 10-2 0v1z"/></svg>