<svg xmlns="http://www.w3.org/2000/svg" viewBox="0 0 60 60"><path d="M54.5 40.1V19.9a5 5 0 00-1-9.9 5 5 0 00-4.58 3L11.5 5.04V5a5 5 0 10-6 4.9v40.2a5 5 0 106 4.9v-.04L48.92 47a5 5 0 105.58-6.9zm-6 4.94L11.08 53a5.06 5.06 0 00-1-1.49l-.17-.15a4.88 4.88 0 00-.48-.4l-.22-.15a5 5 0 00-1.64-.69l-.07-.02V9.9l.07-.02a4.98 4.98 0 001.64-.69l.22-.16c.17-.12.33-.25.48-.4l.16-.14a4.97 4.97 0 001.01-1.5l37.42 7.97V15c0 .33.04.64.1.95l.08.3c.05.2.1.4.18.59.04.11.1.21.15.32a5.03 5.03 0 001.5 1.83c.1.07.2.15.3.2.16.12.34.2.52.3.1.04.18.1.28.13.27.11.55.2.83.26l.06.02v20.2l-.06.02c-.28.06-.56.15-.83.26l-.28.13c-.18.1-.36.18-.53.3l-.28.2A4.84 4.84 0 0049 42.84l-.15.32c-.08.2-.13.4-.18.6l-.08.3c-.06.3-.1.61-.1.94v.04z"/></svg>