<svg xmlns="http://www.w3.org/2000/svg" viewBox="0 0 60 60"><path d="M59.26 46.85l-15.1-17.7a1 1 0 00-1.75.47l-4.21 22.87a1 1 0 001.7.88l6.88-7.12 3.48 13a1 1 0 001.94-.5L48.7 45.73l9.51 2.72a1 1 0 001.04-1.61zM35.5 50H35a1 1 0 100 2h.5a1 1 0 100-2zM21.41 50h-.97a1 1 0 100 2h.97a1 1 0 100-2zM6.85 50h-.97a1 1 0 100 2h.97a1 1 0 100-2zM16.56 50h-.97a1 1 0 100 2h.97a1 1 0 100-2zM26.27 50h-.98a1 1 0 100 2h.98a1 1 0 100-2zM11.7 50h-.96a1 1 0 100 2h.97a1 1 0 100-2zM31.12 50h-.97a1 1 0 100 2h.97a1 1 0 100-2zM2.41 50.09a1 1 0 00-1.91.41v.5a1 1 0 001 1H2a1 1 0 00.41-1.91zM1.5 47.5a1 1 0 001-1v-1a1 1 0 10-2 0v1a1 1 0 001 1zM1.5 37.5a1 1 0 001-1v-1a1 1 0 10-2 0v1a1 1 0 001 1zM1.5 42.5a1 1 0 001-1v-1a1 1 0 10-2 0v1a1 1 0 001 1zM1.5 7.5a1 1 0 001-1v-1a1 1 0 10-2 0v1a1 1 0 001 1zM1.5 12.5a1 1 0 001-1v-1a1 1 0 10-2 0v1a1 1 0 001 1zM1.5 27.5a1 1 0 001-1v-1a1 1 0 10-2 0v1a1 1 0 001 1zM1.5 17.5a1 1 0 001-1v-1a1 1 0 10-2 0v1a1 1 0 001 1zM1.5 22.5a1 1 0 001-1v-1a1 1 0 10-2 0v1a1 1 0 001 1zM1.5 32.5a1 1 0 001-1v-1a1 1 0 10-2 0v1a1 1 0 001 1zM2 0h-.5a1 1 0 00-1 1v.5a1 1 0 001.91.41A1 1 0 002 0zM32 0h-1a1 1 0 100 2h1a1 1 0 100-2zM27 0h-1a1 1 0 100 2h1a1 1 0 100-2zM41 2h1a1 1 0 100-2h-1a1 1 0 100 2zM46 2h1a1 1 0 100-2h-1a1 1 0 100 2zM22 0h-1a1 1 0 100 2h1a1 1 0 100-2zM37 0h-1a1 1 0 100 2h1a1 1 0 100-2zM7 0H6a1 1 0 100 2h1a1 1 0 100-2zM12 0h-1a1 1 0 100 2h1a1 1 0 100-2zM17 0h-1a1 1 0 100 2h1a1 1 0 100-2zM50.59 1.91a1 1 0 001.91-.41V1a1 1 0 00-1-1H51a1 1 0 00-.41 1.91zM52.5 24.67a1 1 0 10-2 0v.97a1 1 0 102 0v-.97zM52.5 5.36a1 1 0 10-2 0v.97a1 1 0 102 0v-.97zM52.5 19.85a1 1 0 10-2 0v.96a1 1 0 102 0v-.96zM52.5 15.02a1 1 0 10-2 0v.96a1 1 0 102 0v-.96zM52.5 10.19a1 1 0 10-2 0v.96a1 1 0 102 0v-.96zM51.5 28.5a1 1 0 00-1 1v.5a1 1 0 102 0v-.5a1 1 0 00-1-1z"/></svg>